<svg width="108" height="52" viewBox="0 0 108 52" fill="none" xmlns="http://www.w3.org/2000/svg">
<path d="M24.0757 17.4913C24.9076 16.4376 25.7677 15.2072 26.6631 13.8141C27.5584 12.414 28.2634 10.9643 28.7851 9.46518C29.3068 7.96604 29.4337 6.53054 29.1588 5.15161C28.8838 3.77975 28.0096 2.58468 26.5291 1.5664C26.508 1.55932 26.4939 1.54518 26.4727 1.53811C26.374 1.48154 26.2753 1.42497 26.1696 1.36839L26.0004 1.28354C24.7032 0.710753 23.3425 0.427894 21.9184 0.449109C19.5496 0.484466 17.1103 0.965325 14.6076 1.88461C12.1048 2.8039 9.7713 4.0414 7.60695 5.58297C5.4426 7.13161 3.67305 8.87825 2.2983 10.8229C1.68495 11.7068 1.16325 12.6473 0.733201 13.6585C0.303151 14.6698 0.0564 15.7163 0 16.7983C0.02115 18.1913 0.43005 19.2308 1.23375 19.938C2.03745 20.6451 3.0456 21.0906 4.2582 21.2815C5.4708 21.4725 6.6975 21.5008 7.9242 21.3664C7.94535 21.3664 7.95945 21.3735 7.97355 21.3947C7.98765 21.4159 7.9947 21.43 7.9806 21.4513C7.473 22.4766 6.97245 23.502 6.47895 24.5273C6.05595 25.3971 5.63295 26.274 5.2029 27.1438C5.1183 27.3842 5.13945 27.5822 5.2593 27.7378C5.37915 27.8933 5.54835 27.9782 5.74575 27.9853C5.94315 27.9923 6.11235 27.8792 6.2463 27.66V27.6317H6.2604C6.8526 26.3093 7.43775 24.987 8.0229 23.6646C8.59395 22.6039 9.20025 21.826 9.8418 21.3381C9.9405 21.2745 10.0392 21.2179 10.1449 21.1825L10.2154 21.1684H10.2295C10.2366 21.1684 10.2507 21.1613 10.2718 21.1543H10.4128C10.9275 21.232 11.2659 21.5008 11.421 21.9604C11.5761 22.42 11.6254 22.9858 11.569 23.6646C11.5126 24.3435 11.428 25.0294 11.3082 25.7295C11.2095 26.2952 11.139 26.8185 11.0967 27.2993C11.0473 27.7802 11.0614 28.1762 11.139 28.4732V28.4873C11.139 28.4944 11.139 28.5015 11.146 28.5085C11.1531 28.5156 11.1531 28.5227 11.1601 28.5368C11.1672 28.551 11.1742 28.5651 11.1813 28.5863C11.2306 28.6712 11.2941 28.749 11.3646 28.8197C11.4844 28.8975 11.6043 28.9328 11.7241 28.9328C11.7453 28.9399 11.7594 28.947 11.7805 28.9399C11.8017 28.9328 11.8158 28.9328 11.8228 28.9328H11.8933C12.1894 28.855 12.4503 28.7348 12.6829 28.5722C12.7323 28.5439 12.7746 28.5156 12.8239 28.4873C13.2822 28.1903 13.7193 27.8792 14.1423 27.5539C14.9742 26.9104 15.7779 26.2386 16.5675 25.5385C19.317 23.0777 21.8127 20.3976 24.0757 17.4913ZM9.4329 21.2745C9.29895 21.3876 9.17205 21.5078 9.04515 21.6351C9.024 21.6563 9.0099 21.6634 8.9958 21.6563C8.9817 21.6493 8.9676 21.6422 8.96055 21.628C8.9535 21.6139 8.9535 21.5998 8.96055 21.5785C9.0099 21.4725 9.05925 21.3664 9.10155 21.2462C9.1086 21.225 9.1227 21.2179 9.14385 21.2179C9.2214 21.1967 9.29895 21.1825 9.3906 21.1755C9.4188 21.1755 9.43995 21.1825 9.447 21.2038C9.4611 21.2179 9.45405 21.2462 9.4329 21.2745ZM14.6922 25.7012C14.0929 26.1891 13.4796 26.6558 12.8592 27.0943C12.838 27.1013 12.8239 27.1155 12.8169 27.1225C12.6547 27.2357 12.4855 27.3488 12.3163 27.4549C12.2952 27.4761 12.2811 27.4761 12.2599 27.462C12.2388 27.4478 12.2317 27.4337 12.2317 27.4125C12.2388 27.3559 12.2458 27.2993 12.2458 27.2569C12.2529 27.165 12.2599 27.073 12.2599 26.9882L12.3022 26.2103C12.3093 26.1325 12.3163 26.0548 12.3163 25.9628C12.3516 25.4254 12.3657 24.8031 12.3445 24.0889C12.3234 23.3747 12.2176 22.717 12.0132 22.1089C11.8087 21.5078 11.4492 21.1048 10.9204 20.8997C10.8711 20.8785 10.8217 20.8643 10.7653 20.8573C11.6607 20.6168 12.5349 20.2986 13.3738 19.9097C13.3809 19.9097 13.3879 19.9097 13.395 19.9026C13.402 19.8955 13.395 19.8885 13.3879 19.8814C13.3879 19.8743 13.3879 19.8673 13.3809 19.8673H13.3597C12.3939 20.2703 11.4069 20.5673 10.3917 20.7583C10.0392 20.836 9.6867 20.8997 9.3342 20.9421C9.306 20.9421 9.28485 20.935 9.2778 20.9209C9.27075 20.9068 9.27075 20.8855 9.2778 20.8573C10.1802 18.7783 11.1319 16.7275 12.1401 14.698L12.1471 14.6839L15.4254 8.82875C15.5311 8.70147 15.5664 8.56711 15.5382 8.41861C15.51 8.27011 15.4254 8.15697 15.2773 8.07918C15.1645 8.02261 15.0447 8.01554 14.9248 8.05797C14.8402 8.08625 12.9085 11.7775 11.7946 13.9131C11.7876 13.9202 11.7876 13.9343 11.7805 13.9414C10.9627 15.4335 10.1872 16.9538 9.447 18.4813C9.38355 18.6227 9.306 18.7712 9.2355 18.9126C8.89005 19.6127 8.5446 20.3128 8.1921 21.027C8.18505 21.0482 8.17095 21.0553 8.1498 21.0553C7.35315 21.1118 6.5706 21.1048 5.78805 21.027C5.06895 20.9704 4.3569 20.8148 3.6378 20.5673C2.92575 20.3198 2.30535 19.9521 1.7907 19.4571C1.27605 18.9692 0.965851 18.3257 0.860101 17.5337L0.8319 17.364L0.8178 17.1801C0.79665 16.6215 0.85305 16.077 0.987 15.5325C1.12095 14.988 1.29015 14.4647 1.50165 13.9414C2.115 12.4918 2.92575 11.1694 3.94095 9.96725C4.9491 8.76511 6.0771 7.68318 7.31085 6.7144C7.36725 6.67904 7.4448 6.62247 7.5435 6.54468C7.63515 6.4669 7.7127 6.41033 7.7691 6.37497C7.8396 6.32547 7.90305 6.27597 7.97355 6.23354C8.1075 6.12747 8.2485 6.0214 8.3895 5.91533C10.3353 4.52933 12.4855 3.36961 14.8261 2.43618C17.1667 1.50982 19.5355 1.00775 21.9325 0.929967H22.3203C22.4613 0.929967 22.5882 0.937037 22.708 0.944109C23.7937 0.979466 24.8371 1.21989 25.8312 1.65125L26.0074 1.73611C26.0991 1.78561 26.1907 1.83511 26.2753 1.89168C26.2965 1.89875 26.3106 1.9129 26.3317 1.91997C27.3892 2.57761 28.1295 3.41911 28.5384 4.43033C28.9473 5.44154 29.053 6.55883 28.8415 7.77511C28.4467 9.66318 27.6783 11.5088 26.5291 13.312C25.38 15.1153 24.0616 16.8124 22.5741 18.4035C21.0865 19.9945 19.6413 21.423 18.2383 22.7029C17.0751 23.7283 15.8977 24.7324 14.6922 25.7012Z" fill="white"/>
<path d="M48.088 21.3453C48.0598 21.317 48.0246 21.3099 47.9823 21.317C47.94 21.324 47.9047 21.3453 47.8765 21.3735C47.3971 21.9888 46.8825 22.5686 46.3326 23.1131C45.9237 23.5374 45.3808 24.0112 44.7111 24.5345C44.0413 25.0648 43.4209 25.3265 42.8499 25.3265H42.8358C42.8146 25.3265 42.8005 25.3194 42.7935 25.3123H42.7794L42.7512 25.284C42.6948 25.0365 42.7582 24.6759 42.9345 24.2163C43.1178 23.7495 43.3222 23.2758 43.5619 22.7878C43.851 22.2221 44.0413 21.7695 44.1471 21.4372V21.3806C44.1471 21.3594 44.1541 21.3382 44.1612 21.3099C44.1612 21.2816 44.1612 21.2533 44.1541 21.218C44.1471 21.1826 44.14 21.1543 44.133 21.126C44.1259 21.119 44.1118 21.1048 44.1118 21.0836C44.1048 21.0624 44.0977 21.0483 44.0766 21.027C44.0554 20.9917 44.0272 20.9493 43.9849 20.9139C43.9426 20.8785 43.8933 20.8502 43.851 20.829C43.8157 20.8078 43.7875 20.8007 43.7664 20.7937C43.7452 20.7866 43.7452 20.7937 43.7523 20.8008C43.6254 20.7795 43.5408 20.7795 43.4773 20.8008C43.3716 20.822 43.287 20.8502 43.2165 20.8997C42.723 21.2038 42.2788 21.5786 41.884 22.017C41.8488 22.0524 41.8065 22.0948 41.7712 22.1302C41.3976 22.5333 41.038 22.9363 40.6785 23.3535C40.3894 23.6788 40.1004 24.0041 39.8043 24.3294C39.6351 24.5203 39.4588 24.7113 39.2755 24.888C39.2685 24.9093 39.2544 24.9163 39.2332 24.9093C39.2121 24.9022 39.205 24.8951 39.198 24.881C39.1909 24.8668 39.1909 24.8527 39.1909 24.8315C39.3742 24.4779 39.5505 24.1243 39.7338 23.7708C39.8889 23.4667 40.0369 23.1555 40.192 22.8515C40.1991 22.8303 40.2132 22.809 40.2202 22.7808C40.3612 22.505 40.4952 22.215 40.6221 21.918C40.6291 21.911 40.6362 21.8968 40.6362 21.8897C40.6926 21.7554 40.7349 21.6069 40.749 21.4443V21.3028C40.7278 21.2109 40.6926 21.119 40.6362 21.0341C40.4247 20.8008 40.2061 20.7371 39.9664 20.822C39.7338 20.9139 39.5998 21.0907 39.5716 21.3453C39.4729 21.5503 39.3813 21.7483 39.2826 21.9534C39.1909 22.0665 39.0993 22.1726 39.0006 22.2787C38.9935 22.2857 38.9794 22.307 38.9724 22.3211C38.1616 23.2333 37.2874 24.0748 36.3639 24.8527C36.2088 24.98 36.0537 25.086 35.8915 25.185L35.8774 25.1992C35.7787 25.2628 35.6871 25.3123 35.5884 25.3265H35.5461C35.4474 25.3053 35.3839 25.2487 35.3487 25.1638C35.3134 25.0719 35.2993 24.9729 35.3064 24.8597C35.3134 24.7466 35.3205 24.6476 35.3275 24.5628C35.3839 24.1597 35.4967 23.7637 35.673 23.3677C35.673 23.3606 35.68 23.3465 35.6871 23.3394C35.6941 23.3182 35.7082 23.304 35.7294 23.2828C35.7646 23.2333 35.8069 23.1838 35.8422 23.1414C35.8704 23.0919 35.9056 23.0495 35.9409 23.0141C36.0537 22.8585 36.1735 22.6959 36.2863 22.512C36.3075 22.4838 36.3216 22.4484 36.3286 22.3989C36.3357 22.3777 36.3427 22.3635 36.3498 22.3423C36.3568 22.3211 36.3568 22.2999 36.3568 22.2716C36.3568 22.2363 36.3568 22.2009 36.3498 22.1726C36.3427 22.1443 36.3357 22.109 36.3286 22.0595C36.3075 22.0029 36.2793 21.9463 36.2299 21.9039C36.2017 21.8685 36.1947 21.8261 36.2158 21.7908C36.2511 21.6493 36.2511 21.5079 36.2017 21.3665C36.1524 21.225 36.0466 21.119 35.8704 21.027C35.5531 20.8715 35.2147 20.8008 34.8552 20.8149C34.3546 20.8361 33.9105 20.9775 33.5086 21.2533C33.1068 21.5291 32.7613 21.8544 32.4793 22.2363C32.1339 22.6959 31.8519 23.2121 31.6333 23.7778C31.4853 24.1597 31.3936 24.5486 31.3513 24.9375C30.9001 25.4891 30.4066 25.9983 29.8708 26.4579C29.8074 26.5145 29.7087 26.5781 29.5888 26.6488C29.469 26.7195 29.3562 26.7761 29.2363 26.8185C29.1235 26.8539 29.0319 26.8398 28.9614 26.7761C28.8979 26.5852 28.905 26.3165 28.9825 25.97C29.0671 25.6235 29.1658 25.277 29.2998 24.9305C29.4267 24.584 29.5395 24.3082 29.6382 24.1031C30.3573 22.5545 31.1328 21.027 31.9647 19.542C32.7966 18.05 33.6496 16.572 34.5238 15.0941C35.6025 13.2626 36.6529 11.417 37.6752 9.55011C37.7245 9.45818 37.7668 9.35918 37.8162 9.26018C38.0347 8.85711 38.2251 8.43282 38.3731 7.98025C38.3943 7.93075 38.4084 7.86711 38.4154 7.79639V7.71861C38.4154 7.6974 38.4084 7.66204 38.4013 7.61254C38.3802 7.53475 38.3449 7.46404 38.2885 7.39332C38.2321 7.32968 38.1616 7.28018 38.0911 7.2519C37.9572 7.22361 37.8444 7.23068 37.7598 7.28018C37.6752 7.32968 37.6117 7.4004 37.5765 7.49232C37.2804 7.93075 36.9843 8.37625 36.6882 8.82882C36.6529 8.89247 36.6106 8.96318 36.5754 9.03389C34.1854 12.7323 31.8237 16.4589 29.4831 20.2138C28.8274 21.2745 28.1647 22.3423 27.502 23.403C27.6571 22.9505 27.777 22.4908 27.8616 22.0241C27.9462 21.5574 27.9462 21.1543 27.8475 20.829C27.7699 20.6169 27.6289 20.4543 27.4315 20.327C27.2482 20.228 27.0579 20.1926 26.8605 20.2138C26.656 20.235 26.5009 20.327 26.374 20.5038C25.951 21.1614 25.3377 21.9605 24.534 22.8939C23.7303 23.8273 22.9759 24.4284 22.2921 24.6971H22.2216C22.1299 24.7042 22.0453 24.6971 21.9819 24.6688C21.9819 24.6618 21.9748 24.6547 21.9678 24.6476C21.9607 24.6405 21.9466 24.6335 21.9396 24.6122C21.8409 24.2657 21.8832 23.8273 22.0594 23.297C22.2357 22.7666 22.4331 22.3494 22.6375 22.0383C22.7997 21.8049 22.8349 21.5928 22.7433 21.4018C22.6516 21.2038 22.5036 21.0765 22.2921 21.02C22.0806 20.9634 21.8761 21.0341 21.6787 21.2321C21.3544 21.6705 21.1077 22.1514 20.9455 22.6535C20.7622 23.1414 20.6565 23.6718 20.6212 24.2375C20.586 24.8032 20.7904 25.284 21.2134 25.673C21.298 25.7295 21.3897 25.7861 21.4884 25.8285C21.7563 25.9346 22.0242 25.977 22.2921 25.9558L22.4754 25.9417L22.5459 25.9275C23.2227 25.7366 23.9277 25.277 24.6609 24.5628C25.3941 23.8485 26.0427 23.099 26.6137 22.3211C26.4868 22.908 26.3317 23.495 26.1414 24.089C25.7395 25.3406 25.2883 26.5852 24.7948 27.8085C22.701 31.1816 20.7481 34.6325 18.9363 38.1611C18.9151 38.1965 18.901 38.2318 18.8799 38.2601C18.612 38.7975 18.3864 39.3632 18.2031 39.9572V39.9714C18.1749 40.0987 18.1537 40.2189 18.1537 40.3462C18.1467 40.4735 18.1819 40.5866 18.2595 40.6927C18.4287 40.827 18.5979 40.827 18.7671 40.6997C18.9363 40.5725 19.0773 40.4169 19.1901 40.2472C19.2183 40.2189 19.2394 40.1835 19.2606 40.1482C19.7259 39.4976 20.1559 38.8258 20.5507 38.1399C22.1229 35.3891 23.5822 32.5817 24.9076 29.7178C25.7184 28.0136 26.4586 26.274 27.1284 24.4991C30.2797 19.344 33.5016 14.2385 36.801 9.17532C36.8433 9.11168 36.8856 9.04804 36.9279 8.9844C36.9067 9.01975 36.8785 9.06218 36.8574 9.10461C36.5542 9.63497 36.244 10.1653 35.9268 10.7028C35.6095 11.2331 35.2993 11.7635 34.9821 12.3009C34.0233 13.892 33.0856 15.5043 32.148 17.1448C31.2174 18.7854 30.3573 20.426 29.5747 22.0595C29.1658 22.9151 28.8063 23.7849 28.5031 24.6759C28.4961 24.7325 28.482 24.789 28.4608 24.8315C28.3621 25.1285 28.2846 25.4325 28.2211 25.7366C28.1577 26.0407 28.1577 26.3589 28.2141 26.6842C28.2493 26.8539 28.3339 27.0095 28.4608 27.1509C28.5807 27.2923 28.7428 27.3772 28.9332 27.4055C29.335 27.4337 29.8215 27.158 30.3855 26.5852C30.7027 26.267 31.0129 25.9134 31.3302 25.5245C31.3584 25.8427 31.4712 26.1114 31.6615 26.3306C31.8589 26.5569 32.1268 26.6771 32.4582 26.6842H32.5428C32.6838 26.6559 32.8107 26.5993 32.9235 26.5215C33.0363 26.4367 33.135 26.3518 33.2337 26.2528C33.2619 26.2245 33.2901 26.1962 33.3183 26.1821C33.6919 25.8002 34.0444 25.4043 34.3758 24.987C34.4251 24.9305 34.4745 24.8739 34.5168 24.8173C34.545 24.782 34.5802 24.7678 34.6296 24.782C34.6789 24.7961 34.7071 24.8315 34.7142 24.888C34.7212 25.0153 34.7424 25.1355 34.7706 25.2487C34.8199 25.4396 34.9116 25.5952 35.0596 25.7083C35.2006 25.8215 35.3769 25.878 35.5743 25.8639H35.6166C35.7012 25.8427 35.7717 25.8215 35.8281 25.7932C36.1171 25.6517 36.3709 25.475 36.6036 25.2628C36.6106 25.2558 36.6247 25.2416 36.6459 25.2345C36.9631 24.9658 37.2592 24.683 37.5483 24.386C37.9219 24.0253 38.2815 23.6505 38.634 23.2687C38.4013 23.7566 38.1828 24.2516 37.9783 24.7537C37.9572 24.8032 37.9431 24.8527 37.9219 24.8951C37.7809 25.2275 37.6893 25.5881 37.647 25.97C37.6399 26.1821 37.7034 26.3518 37.8303 26.4862C37.9642 26.6205 38.1405 26.6771 38.359 26.6559C38.3802 26.6488 38.3943 26.6417 38.4154 26.6417C38.4366 26.6347 38.4507 26.6205 38.4718 26.6205C38.493 26.6135 38.5141 26.6064 38.5423 26.5993C38.5494 26.5923 38.5635 26.5852 38.5705 26.5852H38.5846C38.6199 26.5569 38.6551 26.5357 38.6833 26.5145V26.4791C38.8243 26.366 38.9442 26.2316 39.0288 26.0902C39.1416 25.9063 39.2685 25.7507 39.4024 25.6164C39.6421 25.376 39.9382 25.0719 40.2907 24.6971C40.6432 24.3223 40.9957 23.9475 41.3482 23.5728C41.7571 23.1414 42.0885 22.7949 42.3352 22.5403C42.3564 22.5191 42.3775 22.512 42.3987 22.5191C42.4198 22.5262 42.441 22.5333 42.4551 22.5545C42.4692 22.5757 42.4692 22.5969 42.4621 22.6252C42.2224 23.3253 42.0885 24.0041 42.0462 24.6688C42.0109 25.3265 42.2154 25.7154 42.6736 25.8285H42.7582C43.2447 25.8215 43.7875 25.5952 44.3938 25.1568C44.9931 24.7183 45.5853 24.2021 46.1704 23.6081C46.7556 23.0212 47.2561 22.4838 47.6721 22.0029C47.8272 21.8403 47.9611 21.6988 48.0739 21.5715C48.1021 21.5362 48.1162 21.4938 48.1092 21.4513C48.1515 21.4089 48.1233 21.3735 48.088 21.3453ZM23.413 31.0614C22.7715 32.4969 22.1088 33.9253 21.4108 35.3325C20.7199 36.7398 19.9585 38.1187 19.1407 39.4552C19.1125 39.5047 19.0773 39.5542 19.042 39.5966C18.9292 39.7875 18.7953 39.9714 18.6402 40.1411C18.6966 39.8724 18.7812 39.6107 18.8869 39.3491C18.9151 39.2925 18.9363 39.2289 18.9574 39.1653C19.317 38.3025 19.7188 37.454 20.163 36.6195C21.3756 34.3708 22.6234 32.1363 23.9136 29.9229C23.7444 30.3048 23.5752 30.6866 23.413 31.0614ZM35.1936 22.2504C34.6789 22.908 34.1502 23.5586 33.6003 24.188C33.5791 24.2092 33.565 24.2233 33.558 24.2304C33.4593 24.3365 33.3535 24.4496 33.2337 24.5769C33.1138 24.7042 33.001 24.8244 32.8812 24.9517C32.7684 25.079 32.6344 25.2133 32.4793 25.3689C32.4793 24.9587 32.571 24.5415 32.7543 24.1314C32.9446 23.6505 33.2548 23.1697 33.6778 22.6818C34.1008 22.1938 34.5802 21.9887 35.116 22.0665C35.1654 22.0736 35.1936 22.1019 35.2006 22.1372C35.2147 22.1726 35.2147 22.215 35.1936 22.2504Z" fill="white"/>
<path d="M60.5878 50.826V50.8401C60.5807 50.8401 60.5737 50.8472 60.5737 50.8543C60.5384 50.9886 60.5455 51.1159 60.6019 51.2432C60.6583 51.3705 60.757 51.4553 60.905 51.5048C61.039 51.5543 61.1659 51.5473 61.2928 51.4836C61.4126 51.42 61.5043 51.321 61.5536 51.1866C61.6312 50.9745 61.7087 50.7694 61.7863 50.5714C63.0623 46.8518 64.3948 43.1606 65.7766 39.4834C66.4463 37.7085 67.1443 35.9548 67.8845 34.2081H66.6437C64.5076 39.7026 62.4983 45.2396 60.5878 50.826Z" fill="white"/>
<path d="M99.4544 28.9046H100.434C100.589 28.6076 100.737 28.3035 100.886 27.9995V27.9853C102.387 26.5357 103.889 25.1143 105.383 23.7C105.595 23.502 105.828 23.2828 106.088 23.0565C106.652 22.5191 107.16 22.0241 107.625 21.5786C107.654 21.5503 107.668 21.515 107.668 21.4725C107.668 21.4301 107.654 21.3947 107.625 21.3665C107.59 21.3452 107.548 21.3382 107.513 21.3382C107.477 21.3382 107.442 21.3523 107.414 21.3806C106.822 21.9817 106.208 22.5757 105.581 23.1626C105.454 23.2899 105.334 23.4101 105.207 23.5232C104.721 23.997 104.234 24.4637 103.748 24.9305C102.993 25.6376 102.239 26.3589 101.485 27.0872C101.464 27.1085 101.442 27.1155 101.421 27.1085C101.4 27.1014 101.379 27.0943 101.365 27.0731C101.351 27.0519 101.344 27.0307 101.358 27.0024C101.386 26.9458 101.414 26.8892 101.442 26.8327C102.098 25.3972 102.599 23.898 102.93 22.3352C103.043 21.8049 103.113 21.2604 103.134 20.6947C103.134 20.4825 103.05 20.3057 102.874 20.1643C102.719 20.0724 102.556 20.037 102.387 20.0724C102.218 20.1077 102.084 20.1997 101.985 20.3552C101.555 21.027 100.942 21.819 100.152 22.7383C99.3557 23.6576 98.6154 24.2587 97.9175 24.5486L97.8329 24.5627C97.7271 24.5627 97.6496 24.5486 97.5932 24.5203C97.5861 24.5132 97.5791 24.5062 97.572 24.4991C97.565 24.492 97.5579 24.4779 97.5509 24.4637C97.4522 24.1172 97.4945 23.6788 97.6637 23.1485C97.8329 22.6181 98.0303 22.2009 98.2488 21.8897C98.4039 21.6564 98.4321 21.4442 98.3405 21.2533C98.2488 21.0553 98.1008 20.928 97.8893 20.8715C97.6778 20.8149 97.4804 20.8856 97.29 21.0836C96.9657 21.522 96.719 21.9958 96.5427 22.505C96.5286 22.5474 96.5145 22.5827 96.5004 22.6252C96.3242 22.8161 96.1479 23.007 95.9717 23.1909C95.6967 23.4808 95.3019 23.8556 94.8014 24.3152C94.3008 24.782 93.7791 25.1921 93.2433 25.5386C92.7075 25.8922 92.2422 26.0407 91.8545 25.9912C91.5936 25.9063 91.4667 25.7083 91.4667 25.3972C91.4667 25.086 91.5584 24.7254 91.7417 24.3152C91.7487 24.294 91.7628 24.287 91.784 24.287C92.6441 24.1809 93.342 23.792 93.8778 23.1202C94.2585 22.6888 94.5194 22.1938 94.6533 21.6281V21.5998C94.6745 21.5362 94.6745 21.4372 94.6533 21.3099C94.6463 21.2321 94.611 21.1543 94.5546 21.0624C94.4982 20.9775 94.4277 20.9139 94.3431 20.8785C94.3361 20.8715 94.322 20.8573 94.3149 20.8573C94.3079 20.8502 94.2938 20.8502 94.2867 20.8502C93.9272 20.723 93.5606 20.7583 93.201 20.9492C92.8415 21.1402 92.5031 21.4018 92.207 21.7271C91.9038 22.0524 91.6712 22.3565 91.4949 22.6464C91.2975 22.9505 91.1283 23.2828 90.9803 23.6435C90.6701 23.9192 90.3176 24.2162 89.9157 24.5345C89.246 25.0648 88.6256 25.3265 88.0545 25.3265H88.0404C88.0193 25.3265 88.0052 25.3194 87.9981 25.3123H87.984C87.977 25.3052 87.9629 25.2911 87.9558 25.284C87.8994 25.0365 87.9629 24.6759 88.1391 24.2162C88.3224 23.7495 88.5269 23.2757 88.7666 22.7878C89.0556 22.2221 89.246 21.7695 89.3517 21.4372V21.3806C89.3517 21.3594 89.3588 21.3382 89.3658 21.3099C89.3658 21.2816 89.3658 21.2533 89.3588 21.218C89.3517 21.1826 89.3447 21.1543 89.3376 21.126C89.3306 21.119 89.3235 21.1048 89.3165 21.0836C89.3094 21.0624 89.3024 21.0482 89.2812 21.027C89.2601 20.9917 89.2319 20.9492 89.1896 20.9139C89.1473 20.8785 89.105 20.8502 89.0556 20.829C89.0204 20.8078 88.9922 20.8007 88.971 20.7937C88.9499 20.7866 88.9499 20.7937 88.9569 20.8007C88.83 20.7795 88.7384 20.7795 88.682 20.8007C88.5762 20.822 88.4916 20.8502 88.4211 20.8997C87.9206 21.2038 87.4764 21.5786 87.0887 22.017L86.9759 22.1302C86.6022 22.5332 86.2427 22.9363 85.8902 23.3535C85.6011 23.6788 85.3121 24.0041 85.016 24.3294C84.8468 24.5203 84.6705 24.7112 84.4872 24.888C84.4802 24.9092 84.4661 24.9163 84.4449 24.9092C84.4238 24.9022 84.4167 24.8951 84.4097 24.881C84.4026 24.8668 84.4026 24.8527 84.4026 24.8315C84.5859 24.4779 84.7692 24.1243 84.9455 23.7707C85.1006 23.4667 85.2486 23.1555 85.4037 22.8515C85.4108 22.8302 85.4249 22.809 85.4319 22.7807C85.5729 22.505 85.7069 22.215 85.8338 21.918C85.8408 21.911 85.8479 21.8968 85.8479 21.8897C85.9043 21.7554 85.9395 21.6069 85.9607 21.4442V21.3028C85.9395 21.2109 85.9043 21.119 85.8479 21.0341C85.6364 20.8007 85.4178 20.7371 85.1781 20.822C84.9455 20.9139 84.8115 21.0907 84.7833 21.3452C84.6635 21.5998 84.5436 21.8544 84.4238 22.1019C84.2193 22.2575 84.0008 22.406 83.7681 22.5332C83.2253 22.8373 82.6613 23.0707 82.0902 23.2333C82.0268 23.2545 81.9563 23.2687 81.8928 23.2757C81.8717 23.2828 81.8576 23.2828 81.8435 23.2687C81.8294 23.2545 81.8223 23.2333 81.8223 23.205C81.921 22.8302 81.8858 22.5403 81.7236 22.3282C81.5615 22.2009 81.3993 22.1797 81.2301 22.2645C81.0609 22.3494 80.9199 22.4555 80.8071 22.5898C80.6732 22.7312 80.5745 22.908 80.4969 23.106C80.4264 23.3111 80.4687 23.4879 80.6309 23.6364C80.7084 23.693 80.8001 23.7354 80.9058 23.7637C80.934 23.7637 80.9552 23.7778 80.9622 23.799C80.9693 23.8273 80.9693 23.8485 80.9622 23.8768C80.7155 24.386 80.4053 24.8315 80.0387 25.2204C79.6721 25.6093 79.2984 25.7932 78.9248 25.772L78.8684 25.7578L78.7979 25.7437L78.7415 25.7154C78.53 25.6235 78.4172 25.4608 78.389 25.2345C78.3678 25.0082 78.3819 24.789 78.4383 24.5627C78.5793 23.9758 78.8895 23.4313 79.3689 22.908C79.8483 22.3918 80.4053 22.1514 81.0468 22.1867C81.2583 22.208 81.4346 22.1514 81.5897 22.0312C81.7448 21.9039 81.8223 21.7412 81.8294 21.5291C81.8364 21.3311 81.78 21.1543 81.6602 21.02C81.5333 20.8785 81.3711 20.8078 81.1737 20.7937C80.8142 20.7725 80.4687 20.8149 80.1444 20.921C79.5522 21.1331 79.0517 21.4725 78.6357 21.9392C78.4383 22.1655 78.255 22.406 78.107 22.6535C77.6417 22.8868 77.1693 23.0777 76.6829 23.2121C76.6194 23.2333 76.5489 23.2475 76.4855 23.2545C76.4643 23.2616 76.4502 23.2616 76.4361 23.2475C76.422 23.2333 76.415 23.2121 76.415 23.1838C76.5066 22.809 76.4784 22.5191 76.3163 22.307C76.1541 22.1797 75.992 22.1585 75.8228 22.2433C75.6536 22.3282 75.5126 22.4342 75.3998 22.5686C75.2658 22.71 75.1601 22.8868 75.0896 23.0848C75.0191 23.2899 75.0614 23.4667 75.2235 23.6152C75.3011 23.6717 75.3927 23.7142 75.4985 23.7425C75.5267 23.7425 75.5478 23.7566 75.5549 23.7778C75.5619 23.8061 75.5619 23.8273 75.5549 23.8556C75.3081 24.3647 74.9979 24.8102 74.6313 25.1992C74.2647 25.5881 73.8911 25.772 73.5174 25.7507L73.461 25.7366L73.3905 25.7225L73.3341 25.6942C73.1226 25.6022 73.0098 25.4396 72.9816 25.2133C72.9605 24.987 72.9746 24.7678 73.031 24.5415C73.172 23.9546 73.4822 23.4101 73.9616 22.8868C74.441 22.3706 74.9979 22.1302 75.6395 22.1655C75.851 22.1867 76.0272 22.1302 76.1823 22.01C76.3374 21.8827 76.415 21.72 76.422 21.5079C76.4291 21.3099 76.3727 21.1331 76.2528 20.9987C76.1259 20.8573 75.9638 20.7866 75.7664 20.7725C75.4068 20.7512 75.0614 20.7937 74.7371 20.8997C74.1449 21.1119 73.6443 21.4513 73.2284 21.918C72.8124 22.3847 72.4952 22.908 72.2766 23.4879C72.1286 23.8344 72.044 24.2021 72.0158 24.5769C71.2685 25.8144 70.5705 27.0731 69.9219 28.3742C69.9149 28.3955 69.9078 28.4096 69.9078 28.4167C69.8796 28.4662 69.8373 28.4874 69.788 28.4874C69.7316 28.4874 69.6963 28.4662 69.6681 28.4308C69.6399 28.3955 69.6329 28.346 69.654 28.2894C72.2837 21.6988 75.2165 15.2426 78.4524 8.92781C79.8977 6.12753 81.4487 3.39796 83.1125 0.732028C83.2041 0.541099 83.2112 0.378457 83.1266 0.237028C83.042 0.0955994 82.9151 0.0178146 82.7459 0.0036717C82.5767 -0.0175426 82.4357 0.0531717 82.3088 0.215815C80.2361 3.48282 78.0435 6.67203 75.7382 9.78346C73.4328 12.8949 71.0429 15.9356 68.5683 18.9056C67.7576 19.9097 66.9045 20.8785 66.0021 21.7978C65.4029 22.4272 64.7543 23.0141 64.0704 23.5515C64.0422 23.5586 64.007 23.5657 63.9717 23.5657C63.9365 23.5657 63.9012 23.5586 63.8801 23.5374C63.8589 23.5162 63.8519 23.495 63.8589 23.4667C63.9153 23.3111 63.9717 23.1626 64.0281 23.0212C64.0352 23.0141 64.0422 23 64.0422 22.9929C64.289 22.4767 64.5569 21.9605 64.8459 21.4442C65.6778 19.9875 66.5661 18.5096 67.5108 17.0175C68.5401 15.377 69.506 13.7576 70.4084 12.1595C70.5141 11.912 70.5071 11.6927 70.3872 11.5089C70.2674 11.325 70.0982 11.226 69.8867 11.1977C69.6752 11.1765 69.4778 11.2685 69.3086 11.4806C68.2581 13.1282 66.9186 15.0587 65.283 17.265C63.6474 19.4713 61.9202 21.5645 60.0942 23.5374C58.2683 25.5103 56.541 26.967 54.9054 27.9075C54.1229 28.3247 53.432 28.4591 52.8327 28.3035C52.2335 28.148 51.888 27.5752 51.7964 26.5852C51.7752 25.8285 51.8739 25.079 52.0925 24.3435C52.304 23.6081 52.586 22.8939 52.9314 22.215C53.3333 21.4089 53.8409 20.6381 54.4613 19.8885C55.0746 19.139 55.7937 18.5732 56.6186 18.1772C56.7737 18.1207 56.8724 18.0146 56.9217 17.8661C56.9711 17.7176 56.9499 17.5691 56.8653 17.4277C56.7878 17.3004 56.682 17.2297 56.541 17.1943C56.4 17.166 56.2731 17.1872 56.1462 17.265C55.4412 17.7176 54.8279 18.2692 54.3132 18.9339C52.8045 20.8502 51.8598 23.0141 51.4791 25.4184C51.4298 25.8215 51.4227 26.2245 51.4509 26.6347C51.4791 27.0448 51.5849 27.4337 51.7682 27.8085C52.1418 28.4308 52.6424 28.7349 53.2769 28.7207C53.9114 28.7066 54.5177 28.544 55.0887 28.2257C56.1321 27.6671 57.0909 27.0024 57.9722 26.2175C59.1566 25.1921 60.2846 24.1102 61.3562 22.9717C62.3009 21.9675 63.2315 20.9351 64.148 19.8815C64.1832 19.8461 64.2255 19.832 64.2749 19.839C64.3242 19.8461 64.3595 19.8744 64.3806 19.9097C64.4018 19.9451 64.4018 19.9946 64.3736 20.0512C64.2114 20.3411 64.0563 20.624 63.9012 20.9139C63.6122 21.4513 63.3443 22.0029 63.0834 22.5686C63.0623 22.6252 63.0482 22.6817 63.027 22.7383C62.8931 23.0353 62.7803 23.3606 62.6957 23.7142C62.6111 24.0677 62.6463 24.393 62.7944 24.6759C62.9354 24.9092 63.1398 25.0082 63.4077 24.9941C63.5769 24.9587 63.732 24.881 63.873 24.782C64.014 24.6759 64.1409 24.5627 64.2537 24.4355C64.3031 24.386 64.3454 24.3435 64.3806 24.3082C64.6133 24.0677 64.8318 23.8273 65.0363 23.5727C69.6047 18.248 74.0109 12.7959 78.2621 7.23067C78.2973 7.19531 78.3467 7.1741 78.389 7.18117C78.4383 7.18824 78.4736 7.20946 78.5018 7.24482C78.53 7.28017 78.53 7.32967 78.5018 7.38624C74.9697 14.3799 71.7408 21.515 68.8151 28.7844C68.801 28.8197 68.7869 28.8622 68.7657 28.8975H70.3097C70.352 28.8127 70.3943 28.7278 70.4295 28.643C70.9442 27.561 71.487 26.5003 72.0722 25.4608C72.192 25.9629 72.5234 26.3165 73.0662 26.5286C73.0733 26.5286 73.0803 26.5357 73.0803 26.5427C73.1156 26.5498 73.1579 26.564 73.1931 26.571H73.2072C73.2425 26.5781 73.2848 26.5852 73.32 26.5852L73.4469 26.5993C74.0885 26.5922 74.6243 26.3306 75.0614 25.8285C75.4985 25.3265 75.8298 24.8032 76.0554 24.2587C76.1118 24.1314 76.1753 23.9758 76.2387 23.7849C76.2599 23.7354 76.2951 23.7071 76.3374 23.7C76.8239 23.5869 77.3033 23.4172 77.7756 23.1909C77.7897 23.1838 77.8109 23.1767 77.825 23.1697C77.7756 23.2757 77.7263 23.3889 77.684 23.502C77.4513 24.0465 77.3738 24.6264 77.4372 25.2487C77.5077 25.871 77.8461 26.2952 78.4665 26.5357C78.4736 26.5357 78.4806 26.5427 78.4806 26.5498C78.5159 26.5569 78.5582 26.571 78.5934 26.5781H78.6075C78.6428 26.5852 78.6851 26.5922 78.7203 26.5922L78.8472 26.6064C79.4888 26.5993 80.0246 26.3377 80.4617 25.8356C80.8988 25.3335 81.2301 24.8102 81.4557 24.2657C81.5121 24.1385 81.5756 23.9829 81.639 23.792C81.6602 23.7425 81.6954 23.7142 81.7377 23.7071C82.2242 23.594 82.7036 23.4242 83.1759 23.198C83.5778 23.007 83.888 22.8373 84.1206 22.6817C83.7893 23.3535 83.4791 24.0324 83.1971 24.7254C83.1759 24.7749 83.1618 24.8244 83.1407 24.8668C82.9997 25.1992 82.908 25.5598 82.8728 25.9417C82.8657 26.1538 82.9221 26.3235 83.0561 26.4579C83.19 26.5922 83.3663 26.6488 83.5848 26.6276C83.606 26.6205 83.6201 26.6135 83.6412 26.6135C83.6624 26.6064 83.6765 26.5922 83.6976 26.5922C83.7188 26.5852 83.7399 26.5781 83.7681 26.571C83.7752 26.564 83.7893 26.5569 83.7963 26.5569H83.8104C83.8457 26.5286 83.8809 26.5074 83.9091 26.4862V26.4791C84.0501 26.366 84.17 26.2316 84.2546 26.0902C84.3674 25.9063 84.4943 25.7507 84.6282 25.6164C84.8679 25.376 85.164 25.0719 85.5165 24.6971C85.869 24.3223 86.2215 23.9475 86.574 23.5727C86.9829 23.1414 87.3143 22.7949 87.561 22.5403C87.5822 22.5191 87.6033 22.512 87.6245 22.5191C87.6456 22.5262 87.6668 22.5332 87.6809 22.5545C87.695 22.5757 87.695 22.5969 87.6879 22.6252C87.4482 23.3252 87.3072 24.0041 87.272 24.6688C87.2367 25.3265 87.4412 25.7154 87.8994 25.8285H87.984C88.4705 25.8215 89.0133 25.5952 89.6196 25.1567C90.0003 24.881 90.374 24.5698 90.7476 24.2375C90.5996 24.7607 90.5855 25.2628 90.7124 25.7649C90.7758 25.9982 90.9027 26.1892 91.0931 26.3447C91.2764 26.5003 91.4879 26.5993 91.7346 26.6417C92.2916 26.6771 92.9261 26.4084 93.6381 25.8356C94.3502 25.2628 95.0481 24.591 95.732 23.8202C95.9576 23.5657 96.162 23.3252 96.3594 23.099C96.2819 23.4172 96.2396 23.7425 96.2255 24.089C96.1973 24.6547 96.3947 25.1355 96.8247 25.5245C96.9093 25.581 97.001 25.6376 97.0997 25.68C97.3676 25.7861 97.6284 25.8285 97.8893 25.8073L98.0021 25.7932H98.0867L98.1431 25.779C98.6577 25.6447 99.2006 25.3406 99.7575 24.8739C100.314 24.4072 100.85 23.8697 101.358 23.2616C101.379 23.2333 101.407 23.2192 101.435 23.2262C101.471 23.2333 101.492 23.2404 101.513 23.2616C101.534 23.2828 101.534 23.3111 101.527 23.3465C101.069 25.1355 100.378 26.9882 99.4544 28.9046ZM92.489 22.9575C92.8203 22.4979 93.1446 22.1514 93.4478 21.9251C93.4548 21.918 93.4689 21.911 93.483 21.918C93.4971 21.9251 93.5042 21.9322 93.5112 21.9463C93.5183 21.9605 93.5112 21.9746 93.5042 21.9817C93.2715 22.413 92.9613 22.7595 92.5595 23.0282C92.5383 23.0353 92.5242 23.0424 92.5101 23.0353C92.496 23.0282 92.489 23.0212 92.4819 23.007C92.4749 22.9929 92.4749 22.9717 92.489 22.9575ZM75.8792 22.7666C75.8721 22.908 75.8298 23.0777 75.7664 23.2687C75.7593 23.2899 75.7452 23.304 75.7241 23.3182C75.7029 23.3323 75.6888 23.3394 75.6677 23.3394H75.6254C75.5972 23.3323 75.569 23.3182 75.5408 23.3111C75.5126 23.304 75.4914 23.2899 75.4844 23.2828V23.2687C75.4914 23.205 75.5196 23.1343 75.569 23.0636C75.6183 23 75.6606 22.9363 75.71 22.8797C75.7664 22.8302 75.8228 22.7878 75.8792 22.7525V22.7666V22.7666ZM81.2936 22.7666C81.2865 22.908 81.2442 23.0777 81.1808 23.2687C81.1737 23.2899 81.1596 23.304 81.1385 23.3182C81.1173 23.3323 81.1032 23.3394 81.0821 23.3394H81.0398C81.0116 23.3323 80.9834 23.3182 80.9552 23.3111C80.927 23.304 80.9058 23.2899 80.8988 23.2828V23.2687C80.9058 23.205 80.934 23.1343 80.9834 23.0636C81.0327 23 81.075 22.9363 81.1244 22.8797C81.1808 22.8302 81.2372 22.7878 81.2936 22.7525V22.7666V22.7666Z" fill="white"/>
<path d="M94.5053 37.0721C94.3079 37.3408 93.9977 37.7226 93.5817 38.2318C93.1658 38.7338 92.7357 39.2006 92.2845 39.6178C91.8333 40.0421 91.4597 40.2613 91.1565 40.2754C91.1495 40.2683 91.1354 40.2613 91.1283 40.2613C91.1213 40.2613 91.1142 40.2542 91.1142 40.2471H91.1001C91.1001 40.2401 91.0931 40.233 91.086 40.233C90.9732 40.0916 90.945 39.8865 91.0085 39.639C91.0719 39.3844 91.1706 39.1298 91.3116 38.8753C91.4526 38.6207 91.5654 38.4156 91.6641 38.253C91.6712 38.2459 91.6782 38.2318 91.6782 38.2247C92.3762 37.1781 93.1376 36.1811 93.9554 35.2335C94.2515 34.887 94.5546 34.5476 94.8648 34.2081H94.4206C94.3642 34.2647 94.3079 34.3283 94.2585 34.3849C93.1869 35.5163 92.214 36.7256 91.3328 38.0055C91.3116 38.0267 91.2975 38.055 91.2764 38.0903C91.0367 38.4368 90.8252 38.847 90.6348 39.3349C90.4445 39.8158 90.4938 40.2259 90.7758 40.5653C90.7829 40.5866 90.804 40.6007 90.8181 40.6078V40.6219C91.086 40.8058 91.4103 40.7916 91.791 40.5866C92.1717 40.3815 92.5524 40.0916 92.9261 39.7309C93.2997 39.3703 93.6029 39.0521 93.8285 38.7975C93.8849 38.7338 93.9413 38.6702 93.9836 38.6278C95.0058 37.461 95.9505 36.2306 96.8176 34.9506C96.9868 34.7031 97.156 34.4556 97.3252 34.2081H96.4863C95.8166 35.2618 95.1539 36.2164 94.5053 37.0721Z" fill="white"/>
<path d="M41.0592 32.1575L40.3753 30.1704H40.0369L39.3672 32.1575L38.7186 30.1704H38.1334L39.1486 32.9282H39.5857L39.9241 32.0655L40.2061 31.1887L40.5022 32.0585L40.8406 32.9282H41.2848L42.2718 30.1704H41.6937L41.0592 32.1575Z" fill="white"/>
<path d="M45.55 32.9282H47.6087V32.4191H46.0647V31.7968H47.5523V31.3089H46.0647V30.6725H47.6087V30.1704H45.55C45.55 31.0897 45.55 32.009 45.55 32.9282Z" fill="white"/>
<path d="M52.861 31.4998C53.1148 31.3867 53.2205 31.1816 53.2205 30.9695C53.2205 30.4108 52.8187 30.1704 52.2758 30.1704C51.8387 30.1704 51.4016 30.1704 50.9716 30.1704V32.9282C51.4087 32.9282 51.8387 32.9282 52.2758 32.9282C52.8469 32.9282 53.3051 32.7303 53.3051 32.115C53.2981 31.9453 53.1782 31.5988 52.861 31.4998ZM51.4721 30.6442H52.2688C52.6001 30.6442 52.6988 30.8563 52.6988 30.9836C52.6988 31.1392 52.5931 31.2806 52.2688 31.2806H51.4721V30.6442ZM52.2688 32.4403H51.4721V31.7332H52.2688C52.4803 31.7332 52.7834 31.8605 52.7834 32.115C52.7834 32.3696 52.4803 32.4403 52.2688 32.4403Z" fill="white"/>
<path d="M62.8155 31.5281C62.8014 30.8493 62.3854 30.1704 61.4407 30.1704C61.1023 30.1704 60.7005 30.1704 60.3621 30.1704V32.9282C60.7005 32.9282 61.1023 32.9282 61.4407 32.9282C62.4066 32.9282 62.8296 32.2211 62.8155 31.5281ZM60.8767 30.6583H61.4407C62.04 30.6583 62.2867 31.0897 62.3008 31.521C62.3149 31.9736 62.0682 32.4262 61.4407 32.4262H60.8767V30.6583Z" fill="white"/>
<path d="M66.1149 32.9282H68.1735V32.4191H66.6295V31.7968H68.1171V31.3089H66.6295V30.6725H68.1735V30.1704H66.1149C66.1149 31.0897 66.1149 32.009 66.1149 32.9282Z" fill="white"/>
<path d="M72.8125 32.3201L71.9806 30.1704H71.4025L72.5446 32.9424H73.0804L74.2295 30.1704H73.6444L72.8125 32.3201Z" fill="white"/>
<path d="M77.5077 32.9282H79.5663V32.4191H78.0223V31.7968H79.5099V31.3089H78.0223V30.6725H79.5663V30.1704H77.5077C77.5077 31.0897 77.5077 32.009 77.5077 32.9282Z" fill="white"/>
<path d="M83.4508 30.1704H82.9362V32.9282H84.8679V32.4474H83.4508V30.1704Z" fill="white"/>
<path d="M89.4151 30.1138C88.4633 30.1138 87.998 30.8421 87.998 31.5705C87.998 32.2988 88.4492 32.9918 89.4151 32.9918C90.381 32.9918 90.8181 32.2776 90.8251 31.5634C90.8322 30.8421 90.3598 30.1138 89.4151 30.1138ZM89.4151 32.511C88.7665 32.511 88.5198 32.023 88.5127 31.5705C88.4986 31.1038 88.7665 30.5805 89.4151 30.5805C90.0637 30.5805 90.3246 31.1038 90.3175 31.5634C90.3034 32.023 90.0637 32.511 89.4151 32.511Z" fill="white"/>
<path d="M94.6955 32.115H95.471C96.8176 32.115 96.8176 30.1633 95.471 30.1633C95.041 30.1633 94.6039 30.1704 94.1738 30.1704V32.9283H94.6955V32.115ZM94.6955 30.6583H95.471C96.1337 30.6583 96.1337 31.6342 95.471 31.6342H94.6955V30.6583Z" fill="white"/>
<path d="M99.7927 32.9282H101.851V32.4191H100.307V31.7968H101.795V31.3089H100.307V30.6725H101.851V30.1704H99.7927C99.7927 31.0897 99.7927 32.009 99.7927 32.9282Z" fill="white"/>
<path d="M107.527 31.0826C107.527 30.6088 107.181 30.1704 106.532 30.1704C106.095 30.1704 105.658 30.1633 105.221 30.1633V32.9283H105.743V32.009H106.243L107.047 32.9283H107.668V32.8929L106.836 31.9524C107.35 31.8463 107.527 31.4645 107.527 31.0826ZM105.743 31.5352V30.6513H106.532C106.857 30.6513 107.005 30.8705 107.005 31.0897C107.005 31.3089 106.864 31.5281 106.532 31.5281H105.743V31.5352Z" fill="white"/>
</svg>
