<svg width="273" height="217" viewBox="0 0 273 217" fill="none" xmlns="http://www.w3.org/2000/svg">
<mask id="mask0_73_44" style="mask-type:alpha" maskUnits="userSpaceOnUse" x="0" y="0" width="273" height="217">
<path d="M134.028 216.887H0.00132751V124.521H39.4333V216.887H44.6093V177.455H94.5947V3.23868L134.028 99.684V216.887Z" fill="white"/>
<path d="M180.439 102.604L138.453 0.290668H99.0213L134.028 85.536L160.723 150.828L180.439 102.604Z" fill="white"/>
<path d="M232.645 157.915H272.077V1.43601L232.645 97.8813V157.915Z" fill="white"/>
<path d="M163.619 158V157.467H163.752V157.2H163.885V156.933H164.019V156.533H164.152V156.267H164.285V155.867H164.419V155.6H164.552V155.2H164.685V154.933H164.819V154.533H164.952V154.267H165.085V154H165.219V153.6H165.352V153.333H165.485V152.933H165.619V152.667H165.752V152.267H165.885V152H166.019V151.6H166.152V151.333H166.285V151.067H166.419V150.667H166.552V150.4H166.685V150H166.819V149.733H166.952V149.333H167.085V149.067H167.219V148.667H167.352V148.4H167.485V148.133H167.619V147.733H167.752V147.467H167.885V147.067H168.019V146.8H168.152V146.4H168.285V146.133H168.419V145.733H168.552V145.467H168.685V145.067H168.819V144.8H168.952V144.533H169.085V144.133H169.219V143.867H169.352V143.467H169.485V143.2H169.619V142.8H169.752V142.533H169.885V142.133H170.019V141.867H170.152V141.6H170.285V141.2H170.419V140.933H170.552V140.533H170.685V140.267H170.819V139.867H170.952V139.6H171.085V139.2H171.219V138.933H171.352V138.667H171.485V138.267H171.619V138H171.752V137.6H171.885V137.333H172.019V136.933H172.152V136.667H172.285V136.267H172.419V136H172.552V135.733H172.685V135.333H172.819V135.067H172.952V134.667H173.085V134.4H173.219V134H173.352V133.733H173.485V133.333H173.619V133.067H173.752V132.8H173.885V132.4H174.019V132.133H174.152V131.733H174.285V131.467H174.419V131.067H174.552V130.8H174.685V130.4H174.819V130.133H174.952V129.867H175.085V129.467H175.219V129.2H175.352V128.8H175.485V128.533H175.619V128.133H175.752V127.867H175.885V127.467H176.019V127.2H176.152V126.933H176.285V126.533H176.419V126.267H176.552V125.867H176.685V125.6H176.819V125.2H176.952V124.933H177.085V124.533H177.219V124.267H177.352V124H177.485V123.6H177.619V123.333H177.752V122.933H177.885V122.667H178.019V122.267H178.152V122H178.285V121.6H178.419V121.333H178.552V121.067H178.685V120.667H178.819V120.4H178.952V120H179.085V119.733H179.219V119.333H179.352V119.067H179.485V118.667H179.619V118.4H179.752V118.133H179.885V117.733H180.019V117.467H180.152V117.067H180.285V116.8H180.419V116.4H180.552V116.133H180.685V115.733H180.819V115.467H180.952V115.067H181.085V114.8H181.219V114.533H181.352V114.133H181.485V113.867H181.619V113.467H181.752V113.2H181.885V112.8H182.019V112.533H182.152V112.133H182.285V111.867H182.419V111.6H182.552V111.2H182.685V110.933H182.819V110.533H182.952V110.267H183.085V109.867H183.219V109.6H183.352V109.2H183.485V108.933H183.619V108.667H183.752V108.267H183.885V108H184.019V107.6H184.152V107.333H184.285V106.933H184.419V106.667H184.552V106.267H184.685V106H184.819V105.6H184.952V105.333H185.085V104.933H185.219V104.667H185.352V104.4H185.485V104H185.619V103.733H185.752V103.333H185.885V103.067H186.019V102.667H186.152V102.4H186.285V102H186.419V101.733H186.552V101.333H186.685V101.067H186.819V100.8H186.952V100.4H187.085V100.133H187.219V99.7333H187.352V99.4667H187.485V99.0667H187.619V98.8H187.752V98.4H187.885V98.1333H188.019V97.7333H188.152V97.4667H188.285V97.0667H188.419V96.8H188.552V96.5333H188.685V96.1333H188.819V95.8667H188.952V95.4667H189.085V95.2H189.219V94.8H189.352V94.5333H189.485V94.1333H189.619V93.8667H189.752V93.4667H189.885V93.2H190.019V92.9333H190.152V92.5333H190.285V92.2667H190.419V91.8667H190.552V91.6H190.685V91.2H190.819V90.9333H190.952V90.5333H191.085V90.2667H191.219V89.8667H191.352V89.6H191.485V89.2H191.619V88.9333H191.752V88.6667H191.885V88.2667H192.019V88H192.152V87.6H192.285V87.3333H192.419V86.9333H192.552V86.6667H192.685V86.2667H192.819V86H192.952V85.6H193.085V85.3333H193.219V85.0667H193.352V84.6667H193.485V84.4H193.619V84H193.752V83.7333H193.885V83.3333H194.019V83.0667H194.152V82.6667H194.285V82.4H194.419V82H194.552V81.7333H194.685V81.4667H194.819V81.0667H194.952V80.8H195.085V80.4H195.219V80.1333H195.352V79.7333H195.485V79.4667H195.619V79.0667H195.752V78.8H195.885V78.4H196.019V78.1333H196.152V77.7333H196.285V77.4667H196.419V77.2H196.552V76.8H196.685V76.5333H196.819V76.1333H196.952V75.8667H197.085V75.4667H197.219V75.2H197.352V74.8H197.485V74.5333H197.619V74.1333H197.752V73.8667H197.885V73.6H198.019V73.2H198.152V72.9333H198.285V72.5333H198.419V72.2667H198.552V71.8667H198.685V71.6H198.819V71.2H198.952V70.9333H199.085V70.5333H199.219V70.2667H199.352V69.8667H199.485V69.6H199.619V69.3333H199.752V68.9333H199.885V68.6667H200.019V68.2667H200.152V68H200.285V67.6H200.419V67.3333H200.552V66.9333H200.685V66.6667H200.819V66.2667H200.952V66H201.085V65.7333H201.219V65.3333H201.352V65.0667H201.485V64.6667H201.619V64.4H201.752V64H201.885V63.7333H202.019V63.3333H202.152V63.0667H202.285V62.6667H202.419V62.4H202.552V62H202.685V61.7333H202.819V61.4667H202.952V61.0667H203.085V60.8H203.219V60.4H203.352V60.1333H203.485V59.7333H203.619V59.4667H203.752V59.0667H203.885V58.8H204.019V58.4H204.152V58.1333H204.285V57.8667H204.419V57.4667H204.552V57.2H204.685V56.8H204.819V56.5333H204.952V56.1333H205.085V55.8667H205.219V55.4667H205.352V55.2H205.485V54.8H205.619V54.5333H205.752V54.1333H205.885V53.8667H206.019V53.6H206.152V53.2H206.285V52.9333H206.419V52.5333H206.552V52.2667H206.685V51.8667H206.819V51.6H206.952V51.2H207.085V50.9333H207.219V50.5333H207.352V50.2667H207.485V50H207.619V49.6H207.752V49.3333H207.885V48.9333H208.019V48.6667H208.152V48.2667H208.285V48H208.419V47.6H208.552V47.3333H208.685V46.9333H208.819V46.6667H208.952V46.2667H209.085V46H209.219V45.7333H209.352V45.3333H209.485V45.0667H209.619V44.6667H209.752V44.4H209.885V44H210.019V43.7333H210.152V43.3333H210.285V43.0667H210.419V42.6667H210.552V42.4H210.685V42.1333H210.819V41.7333H210.952V41.4667H211.085V41.0667H211.219V40.8H211.352V40.4H211.485V40.1333H211.619V39.7333H211.752V39.4667H211.885V39.0667H212.019V38.8H212.152V38.4H212.285V38.1333H212.419V37.8667H212.552V37.4667H212.685V37.2H212.819V36.8H212.952V36.5333H213.085V36.1333H213.219V35.8667H213.352V35.4667H213.485V35.2H213.619V34.8H213.752V34.5333H213.885V34.2667H214.019V33.8667H214.152V33.6H214.285V33.2H214.419V32.9333H214.552V32.5333H214.685V32.2667H214.819V31.8667H214.952V31.6H215.085V31.2H215.219V30.9333H215.352V30.5333H215.485V30.2667H215.619V30H215.752V29.6H215.885V29.3333H216.019V28.9333H216.152V28.6667H216.285V28.2667H216.419V28H216.552V27.6H216.685V27.3333H216.819V26.9333H216.952V26.6667H217.085V26.4H217.219V26H217.352V25.7333H217.485V25.3333H217.619V25.0667H217.752V24.6667H217.885V24.4H218.019V24H218.152V23.7333H218.285V23.3333H218.419V23.0667H218.552V22.6667H218.685V22.4H218.819V22.1333H218.952V21.7333H219.085V21.4667H219.219V21.0667H219.352V20.8H219.485V20.4H219.619V20.1333H219.752V19.7333H219.885V19.4667H220.019V19.0667H220.152V18.8H220.285V18.5333H220.419V18.1333H220.552V17.8667H220.685V17.4667H220.819V17.2H220.952V16.8H221.085V16.5333H221.219V16.1333H221.352V15.8667H221.485V15.4667H221.619V15.2H221.752V14.8H221.885V14.5333H222.019V14.2667H222.152V13.8667H222.285V13.6H222.419V13.2H222.552V12.9333H222.685V12.5333H222.819V12.2667H222.952V11.8667H223.085V11.6H223.219V11.2H223.352V10.9333H223.485V10.6667H223.619V10.2667H223.752V10H223.885V9.6H224.019V9.33333H224.152V8.93333H224.285V8.66667H224.419V8.26667H224.552V8H224.685V7.6H224.819V7.33333H224.952V6.93333H225.085V6.66667H225.219V6.4H225.352V6H225.485V5.73333H225.619V5.33333H225.752V5.06667H225.885V4.66667H226.019V4.4H226.152V4H226.285V3.73333H226.419V3.33333H226.552V3.06667H226.685V2.8H226.819V2.4H226.952V2.13333H227.085V1.73333H227.219V1.46667H227.352V1.06667H227.485V0.8H227.619V0.4H227.752V0.133333H227.885V0H267.485V0.133333H267.352V0.533333H267.219V0.8H267.085V1.2H266.952V1.46667H266.819V1.86667H266.685V2.13333H266.552V2.4H266.419V2.8H266.285V3.06667H266.152V3.46667H266.019V3.73333H265.885V4.13333H265.752V4.4H265.619V4.8H265.485V5.06667H265.352V5.46667H265.219V5.73333H265.085V6.13333H264.952V6.4H264.819V6.66667H264.685V7.06667H264.552V7.33333H264.419V7.73333H264.285V8H264.152V8.4H264.019V8.66667H263.885V9.06667H263.752V9.33333H263.619V9.73333H263.485V10H263.352V10.4H263.219V10.6667H263.085V10.9333H262.952V11.3333H262.819V11.6H262.685V12H262.552V12.2667H262.419V12.6667H262.285V12.9333H262.152V13.3333H262.019V13.6H261.885V14H261.752V14.2667H261.619V14.6667H261.485V14.9333H261.352V15.2H261.219V15.6H261.085V15.8667H260.952V16.2667H260.819V16.5333H260.685V16.9333H260.552V17.2H260.419V17.6H260.285V17.8667H260.152V18.2667H260.019V18.5333H259.885V18.9333H259.752V19.2H259.619V19.4667H259.485V19.8667H259.352V20.1333H259.219V20.5333H259.085V20.8H258.952V21.2H258.819V21.4667H258.685V21.8667H258.552V22.1333H258.419V22.5333H258.285V22.8H258.152V23.2H258.019V23.4667H257.885V23.7333H257.752V24.1333H257.619V24.4H257.485V24.8H257.352V25.0667H257.219V25.4667H257.085V25.7333H256.952V26.1333H256.819V26.4H256.685V26.8H256.552V27.0667H256.419V27.4667H256.285V27.7333H256.152V28H256.019V28.4H255.885V28.6667H255.752V29.0667H255.619V29.3333H255.485V29.7333H255.352V30H255.219V30.4H255.085V30.6667H254.952V31.0667H254.819V31.3333H254.685V31.7333H254.552V32H254.419V32.2667H254.285V32.6667H254.152V32.9333H254.019V33.3333H253.885V33.6H253.752V34H253.619V34.2667H253.485V34.6667H253.352V34.9333H253.219V35.3333H253.085V35.6H252.952V36H252.819V36.2667H252.685V36.5333H252.552V36.9333H252.419V37.2H252.285V37.6H252.152V37.8667H252.019V38.2667H251.885V38.5333H251.752V38.9333H251.619V39.2H251.485V39.6H251.352V39.8667H251.219V40.2667H251.085V40.5333H250.952V40.8H250.819V41.2H250.685V41.4667H250.552V41.8667H250.419V42.1333H250.285V42.5333H250.152V42.8H250.019V43.2H249.885V43.4667H249.752V43.8667H249.619V44.1333H249.485V44.5333H249.352V44.8H249.219V45.0667H249.085V45.4667H248.952V45.7333H248.819V46.1333H248.685V46.4H248.552V46.8H248.419V47.0667H248.285V47.4667H248.152V47.7333H248.019V48.1333H247.885V48.4H247.752V48.8H247.619V49.0667H247.485V49.3333H247.352V49.7333H247.219V50H247.085V50.4H246.952V50.6667H246.819V51.0667H246.685V51.3333H246.552V51.7333H246.419V52H246.285V52.4H246.152V52.6667H246.019V53.0667H245.885V53.3333H245.752V53.6H245.619V54H245.485V54.2667H245.352V54.6667H245.219V54.9333H245.085V55.3333H244.952V55.6H244.819V56H244.685V56.2667H244.552V56.6667H244.419V56.9333H244.285V57.3333H244.152V57.6H244.019V57.8667H243.885V58.2667H243.752V58.5333H243.619V58.9333H243.485V59.2H243.352V59.6H243.219V59.8667H243.085V60.2667H242.952V60.5333H242.819V60.9333H242.685V61.2H242.552V61.6H242.419V61.8667H242.285V62.1333H242.152V62.5333H242.019V62.8H241.885V63.2H241.752V63.4667H241.619V63.8667H241.485V64.1333H241.352V64.5333H241.219V64.8H241.085V65.2H240.952V65.4667H240.819V65.8667H240.685V66.1333H240.552V66.4H240.419V66.8H240.285V67.0667H240.152V67.4667H240.019V67.7333H239.885V68.1333H239.752V68.4H239.619V68.8H239.485V69.0667H239.352V69.4667H239.219V69.7333H239.085V70.1333H238.952V70.4H238.819V70.6667H238.685V71.0667H238.552V71.3333H238.419V71.7333H238.285V72H238.152V72.4H238.019V72.6667H237.885V73.0667H237.752V73.3333H237.619V73.7333H237.485V74H237.352V74.4H237.219V74.6667H237.085V74.9333H236.952V75.3333H236.819V75.6H236.685V76H236.552V76.2667H236.419V76.6667H236.285V76.9333H236.152V77.3333H236.019V77.6H235.885V78H235.752V78.2667H235.619V78.6667H235.485V78.9333H235.352V79.3333H235.219V79.6H235.085V79.8667H234.952V80.2667H234.819V80.5333H234.685V80.9333H234.552V81.2H234.419V81.6H234.285V81.8667H234.152V82.2667H234.019V82.5333H233.885V82.9333H233.752V83.2H233.619V83.6H233.485V83.8667H233.352V84.1333H233.219V84.5333H233.085V84.8H232.952V85.2H232.819V85.4667H232.685V85.8667H232.552V86.1333H232.419V86.5333H232.285V86.8H232.152V87.0667H232.019V87.4667H231.885V87.7333H231.752V88.1333H231.619V88.4H231.485V88.8H231.352V89.0667H231.219V89.4667H231.085V89.7333H230.952V90.1333H230.819V90.4H230.685V90.6667H230.552V91.0667H230.419V91.3333H230.285V91.7333H230.152V92H230.019V92.4H229.885V92.6667H229.752V93.0667H229.619V93.3333H229.485V93.6H229.352V94H229.219V94.2667H229.085V94.6667H228.952V94.9333H228.819V95.3333H228.685V95.6H228.552V96H228.419V96.2667H228.285V96.5333H228.152V96.9333H228.019V97.2H227.885V97.6H227.752V97.8667H227.619V98.2667H227.485V98.5333H227.352V98.9333H227.219V99.2H227.085V99.4667H226.952V99.8667H226.819V100.133H226.685V100.533H226.552V100.8H226.419V101.2H226.285V101.467H226.152V101.867H226.019V102.133H225.885V102.4H225.752V102.8H225.619V103.067H225.485V103.467H225.352V103.733H225.219V104.133H225.085V104.4H224.952V104.8H224.819V105.067H224.685V105.333H224.552V105.733H224.419V106H224.285V106.4H224.152V106.667H224.019V107.067H223.885V107.333H223.752V107.733H223.619V108H223.485V108.267H223.352V108.667H223.219V108.933H223.085V109.333H222.952V109.6H222.819V110H222.685V110.267H222.552V110.667H222.419V110.933H222.285V111.2H222.152V111.6H222.019V111.867H221.885V112.267H221.752V112.533H221.619V112.933H221.485V113.2H221.352V113.6H221.219V113.867H221.085V114.267H220.952V114.533H220.819V114.8H220.685V115.2H220.552V115.467H220.419V115.867H220.285V116.133H220.152V116.533H220.019V116.8H219.885V117.2H219.752V117.467H219.619V117.733H219.485V118.133H219.352V118.4H219.219V118.8H219.085V119.067H218.952V119.467H218.819V119.733H218.685V120.133H218.552V120.4H218.419V120.667H218.285V121.067H218.152V121.333H218.019V121.733H217.885V122H217.752V122.4H217.619V122.667H217.485V123.067H217.352V123.333H217.219V123.6H217.085V124H216.952V124.267H216.819V124.667H216.685V124.933H216.552V125.333H216.419V125.6H216.285V126H216.152V126.267H216.019V126.533H215.885V126.933H215.752V127.2H215.619V127.6H215.485V127.867H215.352V128.267H215.219V128.533H215.085V128.933H214.952V129.2H214.819V129.467H214.685V129.867H214.552V130.133H214.419V130.533H214.285V130.8H214.152V131.2H214.019V131.467H213.885V131.867H213.752V132.133H213.619V132.4H213.485V132.8H213.352V133.067H213.219V133.467H213.085V133.733H212.952V134.133H212.819V134.4H212.685V134.8H212.552V135.067H212.419V135.333H212.285V135.733H212.152V136H212.019V136.4H211.885V136.667H211.752V137.067H211.619V137.333H211.485V137.733H211.352V138H211.219V138.267H211.085V138.667H210.952V138.933H210.819V139.333H210.685V139.6H210.552V140H210.419V140.267H210.285V140.667H210.152V140.933H210.019V141.333H209.885V141.6H209.752V141.867H209.619V142.267H209.485V142.533H209.352V142.933H209.219V143.2H209.085V143.6H208.952V143.867H208.819V144.267H208.685V144.533H208.552V144.8H208.419V145.2H208.285V145.467H208.152V145.867H208.019V146.133H207.885V146.533H207.752V146.8H207.619V147.2H207.485V147.467H207.352V147.733H207.219V148.133H207.085V148.4H206.952V148.8H206.819V149.067H206.685V149.467H206.552V149.733H206.419V150.133H206.285V150.4H206.152V150.667H206.019V151.067H205.885V151.333H205.752V151.733H205.619V152H205.485V152.4H205.352V152.667H205.219V153.067H205.085V153.333H204.952V153.6H204.819V154H204.685V154.267H204.552V154.667H204.419V154.933H204.285V155.333H204.152V155.6H204.019V156H203.885V156.267H203.752V156.533H203.619V156.933H203.485V157.2H203.352V157.6H203.219V157.867H203.085V158" fill="white"/>
<path d="M87.74 119.776V80.344L0 80.3427V119.776H87.74Z" fill="white"/>
</mask>
<g mask="url(#mask0_73_44)">
<circle cx="67" cy="150" r="67" fill="white"/>
<rect x="121" y="-16" width="178" height="166" fill="white"/>
<rect x="142" y="95" width="133" height="66" fill="white"/>
<rect x="92" y="-18" width="42" height="170" fill="white"/>
</g>
</svg>
